<svg width="17" height="17" viewBox="0 0 17 17" fill="none" xmlns="http://www.w3.org/2000/svg">
<path d="M7.82653 1.91852H5.28019C3.18605 1.91852 1.87305 3.4011 1.87305 5.50001V11.162C1.87305 13.2609 3.17993 14.7435 5.28019 14.7435H11.2895C13.3905 14.7435 14.6973 13.2609 14.6973 11.162V8.41886" stroke="#878383" stroke-width="1.02153" stroke-linecap="round" stroke-linejoin="round"/>
<path fill-rule="evenodd" clip-rule="evenodd" d="M6.01209 7.45631L11.1014 2.36704C11.7354 1.73369 12.763 1.73369 13.3971 2.36704L14.2259 3.19584C14.8599 3.82987 14.8599 4.85821 14.2259 5.49156L9.1121 10.6053C8.83492 10.8825 8.459 11.0385 8.06673 11.0385H5.51562L5.57964 8.46422C5.58918 8.08557 5.74377 7.72463 6.01209 7.45631Z" stroke="#878383" stroke-width="1.02153" stroke-linecap="round" stroke-linejoin="round"/>
<path d="M10.3281 3.15308L13.4377 6.26262" stroke="#878383" stroke-width="1.02153" stroke-linecap="round" stroke-linejoin="round"/>
</svg>
